<svg xmlns="http://www.w3.org/2000/svg" width="800" height="520" viewBox="0 0 800 520"><rect width="800" height="520" fill="#eef5f4"/><rect x="28" y="28" width="744" height="464" rx="20" fill="white" stroke="#d8e5e3"/><rect x="28" y="28" width="744" height="58" rx="20" fill="#123b40"/><circle cx="54" cy="56" r="5" fill="#a5dcd6"/><circle cx="72" cy="56" r="5" fill="#f5cc74"/><text x="96" y="63" font-family="Arial,sans-serif" font-size="17" fill="white">CRM &amp; ERP · concept</text><text x="56" y="125" font-family="Arial,sans-serif" font-size="24" font-weight="bold" fill="#123b40">One workflow for sales and operations</text><rect x="56" y="156" width="216" height="258" rx="12" fill="#f3f7f6"/><rect x="56" y="156" width="216" height="44" rx="12" fill="#0b777f"/><text x="72" y="184" font-family="Arial,sans-serif" font-size="17" font-weight="bold" fill="white">Sales</text><rect x="68" y="216" width="192" height="50" rx="7" fill="white" stroke="#d8e5e3"/><text x="80" y="237" font-family="Arial,sans-serif" font-size="14" fill="#123b40">New lead</text><text x="80" y="255" font-family="Arial,sans-serif" font-size="11" fill="#526c70">Assigned owner</text><rect x="68" y="276" width="192" height="50" rx="7" fill="white" stroke="#d8e5e3"/><text x="80" y="297" font-family="Arial,sans-serif" font-size="14" fill="#123b40">Follow-up</text><text x="80" y="315" font-family="Arial,sans-serif" font-size="11" fill="#526c70">Next action recorded</text><rect x="68" y="336" width="192" height="50" rx="7" fill="white" stroke="#d8e5e3"/><text x="80" y="357" font-family="Arial,sans-serif" font-size="14" fill="#123b40">Quotation</text><text x="80" y="375" font-family="Arial,sans-serif" font-size="11" fill="#526c70">Proposal for review</text><rect x="292" y="156" width="216" height="258" rx="12" fill="#f3f7f6"/><rect x="292" y="156" width="216" height="44" rx="12" fill="#c49639"/><text x="308" y="184" font-family="Arial,sans-serif" font-size="17" font-weight="bold" fill="white">Operations</text><rect x="304" y="216" width="192" height="50" rx="7" fill="white" stroke="#d8e5e3"/><text x="316" y="237" font-family="Arial,sans-serif" font-size="14" fill="#123b40">Order record</text><text x="316" y="255" font-family="Arial,sans-serif" font-size="11" fill="#526c70">Agreed requirements</text><rect x="304" y="276" width="192" height="50" rx="7" fill="white" stroke="#d8e5e3"/><text x="316" y="297" font-family="Arial,sans-serif" font-size="14" fill="#123b40">Approval</text><text x="316" y="315" font-family="Arial,sans-serif" font-size="11" fill="#526c70">Responsible team member</text><rect x="304" y="336" width="192" height="50" rx="7" fill="white" stroke="#d8e5e3"/><text x="316" y="357" font-family="Arial,sans-serif" font-size="14" fill="#123b40">Delivery tasks</text><text x="316" y="375" font-family="Arial,sans-serif" font-size="11" fill="#526c70">Track progress</text><rect x="528" y="156" width="216" height="258" rx="12" fill="#f3f7f6"/><rect x="528" y="156" width="216" height="44" rx="12" fill="#327b69"/><text x="544" y="184" font-family="Arial,sans-serif" font-size="17" font-weight="bold" fill="white">Review</text><rect x="540" y="216" width="192" height="50" rx="7" fill="white" stroke="#d8e5e3"/><text x="552" y="237" font-family="Arial,sans-serif" font-size="14" fill="#123b40">Access roles</text><text x="552" y="255" font-family="Arial,sans-serif" font-size="11" fill="#526c70">Appropriate permissions</text><rect x="540" y="276" width="192" height="50" rx="7" fill="white" stroke="#d8e5e3"/><text x="552" y="297" font-family="Arial,sans-serif" font-size="14" fill="#123b40">Pending work</text><text x="552" y="315" font-family="Arial,sans-serif" font-size="11" fill="#526c70">See what needs attention</text><rect x="540" y="336" width="192" height="50" rx="7" fill="white" stroke="#d8e5e3"/><text x="552" y="357" font-family="Arial,sans-serif" font-size="14" fill="#123b40">Reports</text><text x="552" y="375" font-family="Arial,sans-serif" font-size="11" fill="#526c70">Review agreed measures</text><path d="M270 438 H520" stroke="#0b777f" stroke-width="2"/><path d="m512 432 8 6-8 6" fill="none" stroke="#0b777f" stroke-width="2"/><text x="56" y="465" font-family="Arial,sans-serif" font-size="13" fill="#526c70">Illustrative workflow · scope agreed for each project</text></svg>